<svg xmlns="http://www.w3.org/2000/svg" xmlns:xlink="http://www.w3.org/1999/xlink" viewBox="0 0 81.13 84.18"><defs><style>.cls-1{fill-rule:evenodd;fill:url(#linear-gradient);}.cls-2{fill:#7a171c;}</style><linearGradient id="linear-gradient" x1="40.56" y1="-41.32" x2="40.56" y2="86.4" gradientUnits="userSpaceOnUse"><stop offset="0.27" stop-color="#e63251"/><stop offset="1" stop-color="#a60006"/></linearGradient></defs><g id="Layer_2" data-name="Layer 2"><g id="Layer_3" data-name="Layer 3"><path class="cls-1" d="M81.13,59.66V23.51A23.58,23.58,0,0,0,57.62,0H23.51A23.59,23.59,0,0,0,0,23.51V59.66A23.59,23.59,0,0,0,23.51,83.18H57.62A23.59,23.59,0,0,0,81.13,59.66Z"/><path class="cls-2" d="M81.13,58.67v2A23.58,23.58,0,0,1,57.62,84.18H23.51A23.59,23.59,0,0,1,0,60.66v-2a23.58,23.58,0,0,0,23.51,23.5H57.62A23.57,23.57,0,0,0,81.13,58.67Z"/></g></g></svg>