<svg xmlns="http://www.w3.org/2000/svg" xmlns:xlink="http://www.w3.org/1999/xlink" viewBox="0 0 202.75 47.82"><defs><style>.cls-1{fill:#8f9bb3;fill-rule:evenodd;opacity:0.5;}.cls-2{opacity:0.1;fill:url(#linear-gradient);}.cls-3{fill:#7a171c;}</style><linearGradient id="linear-gradient" x1="101.37" y1="47.82" x2="101.37" y2="1.82" gradientUnits="userSpaceOnUse"><stop offset="0" stop-color="#4f4f66"/><stop offset="1" stop-color="#747691"/></linearGradient></defs><g id="Layer_2" data-name="Layer 2"><g id="Layer_3" data-name="Layer 3"><path class="cls-1" d="M202.75,21.3v1.81c0-11.72-7.63-21.29-16.95-21.29H17C7.63,1.82,0,11.39,0,23.11V21.3C0,9.59,7.63,0,17,0H185.8C195.12,0,202.75,9.59,202.75,21.3Z"/><path class="cls-2" d="M202.75,23.11v3.41c0,11.71-7.63,21.3-16.95,21.3H17C7.63,47.82,0,38.23,0,26.52V23.11C0,11.39,7.63,1.82,17,1.82H185.8C195.12,1.82,202.75,11.39,202.75,23.11Z"/><path class="cls-3" d="M165.85,16.63a6.59,6.59,0,0,0-5.95,3.78H41.8a6.58,6.58,0,1,0,0,5.61H159.9a6.58,6.58,0,1,0,5.95-9.39Z"/></g></g></svg>