<svg xmlns="http://www.w3.org/2000/svg" viewBox="0 0 81.13 85.19"><defs><style>.cls-1{fill:#4a566e;fill-rule:evenodd;opacity:0.5;}.cls-2{fill:#c1bfd9;}</style></defs><g id="Layer_2" data-name="Layer 2"><g id="Layer_3" data-name="Layer 3"><path class="cls-1" d="M81.13,25.51v-2A23.59,23.59,0,0,0,57.62,0H23.51A23.59,23.59,0,0,0,0,23.52v2A23.58,23.58,0,0,1,23.51,2H57.62A23.57,23.57,0,0,1,81.13,25.51Z"/><path class="cls-2" d="M81.13,61.67V25.51A23.57,23.57,0,0,0,57.62,2H23.51A23.58,23.58,0,0,0,0,25.51V61.67A23.59,23.59,0,0,0,23.51,85.19H57.62A23.59,23.59,0,0,0,81.13,61.67Z"/></g></g></svg>