<svg xmlns="http://www.w3.org/2000/svg" viewBox="0 0 42.07 32.56"><defs><style>.cls-1{fill:#b08a22;}.cls-2{fill:#eebb2e;}</style></defs><g id="Layer_2" data-name="Layer 2"><g id="Layer_3" data-name="Layer 3"><path class="cls-1" d="M16.72,32.55a4.79,4.79,0,0,1-3.43-1.63c-4-4.2-8-8.43-12.08-12.64C0,17-.54,15.13.8,13.85s3.12-2,4.45-3.28C6.82,9.05,8.14,9.32,9.39,11c1.79,2.47,3.7,4.86,5.48,7.34,1.25,1.73,2.21,2.14,3.78.17,4.27-5.35,8.79-10.5,13.07-15.84,1.59-2,2.93-3.24,4.82-1.58,7.13,6.25,7.12,5.49,1.36,11.71C32.55,18.61,26.49,24.69,21,30.34,19.83,31.57,18.57,32.62,16.72,32.55Z"/><path class="cls-2" d="M16.72,31.47a4.79,4.79,0,0,1-3.43-1.63c-4-4.21-8-8.44-12.08-12.64-1.26-1.32-1.3-2.57.05-3.85s2.66-2.57,4-3.86C6.82,8,8.14,8.23,9.39,10c1.79,2.48,3.7,4.86,5.48,7.34,1.25,1.74,2.21,2.15,3.78.18C22.92,12.12,27.44,7,31.72,1.63c1.59-2,2.93-2.16,4.82-.5,7.13,6.25,6.64,4.93.87,11.15-5.35,5.77-10.92,11.33-16.39,17C19.83,30.49,18.57,31.54,16.72,31.47Z"/></g></g></svg>