<svg xmlns="http://www.w3.org/2000/svg" viewBox="0 0 26.32 27.93"><defs><style>.cls-1{fill:#2a364d;}.cls-2{fill:#3f5173;}.cls-3{fill:#cd171c;}</style></defs><g id="Layer_2" data-name="Layer 2"><g id="Layer_3" data-name="Layer 3"><rect class="cls-1" y="0.22" width="26.32" height="27.7" rx="9.82"/><rect class="cls-2" width="26.32" height="26.31" rx="9.57"/><path class="cls-3" d="M13.32,11.32h2.29q1.56,0,2.37,0a.7.7,0,0,1,.43.25.71.71,0,0,1,.25.42c0,.32,0,.73,0,1.23,0,.93-.16,1.48-.49,1.66a6.87,6.87,0,0,1-2.6.28H12.17c-1.15,0-2.29,0-3.43-.07a1.25,1.25,0,0,1-.65-.39,1,1,0,0,1-.38-.64c0-.15,0-.37,0-.67s0-.5,0-.64a1.45,1.45,0,0,1,.68-1.43A3.58,3.58,0,0,1,10,11.09q.67,0,1.86.12C12.63,11.28,13.12,11.32,13.32,11.32Z"/></g></g></svg>