<svg xmlns="http://www.w3.org/2000/svg" viewBox="0 0 59.29 61.43"><defs><style>.cls-1{isolation:isolate;}.cls-2{fill:#a7aac4;mix-blend-mode:multiply;opacity:0.4;}.cls-3{fill:#fff;fill-rule:evenodd;}</style></defs><g class="cls-1"><g id="Layer_2" data-name="Layer 2"><g id="Layer_3" data-name="Layer 3"><path class="cls-2" d="M50.21,61.43a7.74,7.74,0,0,1-5.5-2.27l-15.06-15-15.06,15a7.81,7.81,0,0,1-11,0l-1.31-1.3a7.77,7.77,0,0,1,0-11l15.06-15-15.06-15a7.77,7.77,0,0,1,0-11l1.31-1.3a7.81,7.81,0,0,1,11,0l15.06,15,15.06-15a7.8,7.8,0,0,1,11,0L57,5.85a7.77,7.77,0,0,1,0,11L42,31.85,57,46.88a7.77,7.77,0,0,1,0,11l-1.31,1.3A7.74,7.74,0,0,1,50.21,61.43Z"/><path class="cls-3" d="M49.6,57.53a7.47,7.47,0,0,1-5.34-2.21L29.65,40.71,15,55.32a7.56,7.56,0,0,1-10.68,0L3.09,54.06a7.56,7.56,0,0,1,0-10.68L17.7,28.76,3.09,14.15a7.56,7.56,0,0,1,0-10.68L4.35,2.21A7.56,7.56,0,0,1,15,2.21L29.65,16.82,44.26,2.21a7.56,7.56,0,0,1,10.68,0l1.27,1.26a7.57,7.57,0,0,1,0,10.68L41.59,28.76,56.2,43.38a7.56,7.56,0,0,1,0,10.68l-1.26,1.26A7.47,7.47,0,0,1,49.6,57.53Z"/><path class="cls-3" d="M39.46,28.76,55.14,13.08a6.05,6.05,0,0,0,0-8.54L53.87,3.27a6.05,6.05,0,0,0-8.54,0L29.65,19,14,3.27a6.05,6.05,0,0,0-8.54,0L4.15,4.54a6.05,6.05,0,0,0,0,8.54L19.83,28.76,4.15,44.45a6.05,6.05,0,0,0,0,8.54l1.27,1.27a6.05,6.05,0,0,0,8.54,0L29.65,38.58,45.33,54.26a6.05,6.05,0,0,0,8.54,0L55.14,53a6.05,6.05,0,0,0,0-8.54Z"/></g></g></g></svg>