<svg xmlns="http://www.w3.org/2000/svg" viewBox="0 0 26.89 27.93"><defs><style>.cls-1{fill:#2a364d;}.cls-2{fill:#3f5173;}.cls-3{fill:#0c6;}</style></defs><g id="Layer_2" data-name="Layer 2"><g id="Layer_3" data-name="Layer 3"><rect class="cls-1" y="0.22" width="26.89" height="27.7" rx="9.92"/><rect class="cls-2" width="26.89" height="26.31" rx="9.67"/><path class="cls-3" d="M11.13,11.18c.24,0,.36-.13.36-.38v-.71c0-.68,0-1.28,0-1.8A2.49,2.49,0,0,1,12,6.53a2.5,2.5,0,0,1,1.64-.42,1.82,1.82,0,0,1,1.42.43,1.84,1.84,0,0,1,.36,1.23V8.1c0,.16,0,.38,0,.65s0,.48,0,.61c0,.53,0,.94,0,1.23a.51.51,0,0,0,.52.52c1.42.05,2.39.07,2.89.07h.5a2.7,2.7,0,0,1,.44.07,1.57,1.57,0,0,1,.38.2.9.9,0,0,1,.32.55,4.47,4.47,0,0,1,.1,1,2.17,2.17,0,0,1-.24,1.07,1.39,1.39,0,0,1-.44.53,2.47,2.47,0,0,1-.39.16,15.81,15.81,0,0,1-1.66.09c-.49,0-1.12,0-1.88,0h0a.52.52,0,0,0-.38.16.46.46,0,0,0-.16.36c0,1.76-.07,2.8-.07,3.13a1.71,1.71,0,0,1-.42,1.08,2,2,0,0,1-1.46.39h-.21a2.35,2.35,0,0,1-1.46-.32,1.16,1.16,0,0,1-.39-.89c0-1.07-.05-1.74-.05-2s0-.48,0-.79,0-.48,0-.56a.63.63,0,0,0-.18-.44.58.58,0,0,0-.42-.18c-1.88,0-3,0-3.39-.07H7.29a.94.94,0,0,1-.67-.33,1.47,1.47,0,0,1-.32-1.07v-.21c0-1.25.39-1.87,1.18-1.87h0c.14,0,.54,0,1.21,0h2.41Z"/></g></g></svg>